<mxfile host="app.diagrams.net" agent="Mozilla/5.0 (Windows NT 10.0; Win64; x64) AppleWebKit/537.36 (KHTML, like Gecko) Chrome/140.0.0.0 Safari/537.36 Edg/140.0.0.0" version="28.2.3">
  <diagram name="PÃ¡gina-1" id="LEwKQXsR4M-f_N9ue2LC">
    <mxGraphModel dx="1418" dy="786" grid="1" gridSize="10" guides="1" tooltips="1" connect="1" arrows="1" fold="1" page="1" pageScale="1" pageWidth="827" pageHeight="1169" math="0" shadow="0">
      <root>
        <mxCell id="0" />
        <mxCell id="1" parent="0" />
        <mxCell id="2HC5BbfM1P_4dUDuNDmz-2" style="edgeStyle=orthogonalEdgeStyle;rounded=0;orthogonalLoop=1;jettySize=auto;html=1;" edge="1" parent="1">
          <mxGeometry relative="1" as="geometry">
            <mxPoint x="414" y="230" as="targetPoint" />
            <mxPoint x="414" y="160" as="sourcePoint" />
          </mxGeometry>
        </mxCell>
        <mxCell id="2HC5BbfM1P_4dUDuNDmz-3" value="LER" style="ellipse;whiteSpace=wrap;html=1;fillColor=#d5e8d4;strokeColor=#82b366;" vertex="1" parent="1">
          <mxGeometry x="341" y="70" width="146" height="90" as="geometry" />
        </mxCell>
        <mxCell id="2HC5BbfM1P_4dUDuNDmz-7" style="edgeStyle=orthogonalEdgeStyle;rounded=0;orthogonalLoop=1;jettySize=auto;html=1;" edge="1" parent="1" source="2HC5BbfM1P_4dUDuNDmz-4">
          <mxGeometry relative="1" as="geometry">
            <mxPoint x="414" y="350" as="targetPoint" />
          </mxGeometry>
        </mxCell>
        <mxCell id="2HC5BbfM1P_4dUDuNDmz-4" value="ler p1,p2,p3,p4&amp;nbsp;" style="shape=parallelogram;perimeter=parallelogramPerimeter;whiteSpace=wrap;html=1;fixedSize=1;fillColor=#fff2cc;strokeColor=#d6b656;" vertex="1" parent="1">
          <mxGeometry x="329" y="230" width="170" height="60" as="geometry" />
        </mxCell>
        <mxCell id="2HC5BbfM1P_4dUDuNDmz-8" style="edgeStyle=orthogonalEdgeStyle;rounded=0;orthogonalLoop=1;jettySize=auto;html=1;" edge="1" parent="1" source="2HC5BbfM1P_4dUDuNDmz-6">
          <mxGeometry relative="1" as="geometry">
            <mxPoint x="414" y="470" as="targetPoint" />
          </mxGeometry>
        </mxCell>
        <mxCell id="2HC5BbfM1P_4dUDuNDmz-6" value="MEDIA=&lt;div&gt;(P1,P2,P3,P4)&lt;/div&gt;" style="rounded=0;whiteSpace=wrap;html=1;fillColor=#e1d5e7;strokeColor=#9673a6;" vertex="1" parent="1">
          <mxGeometry x="346" y="350" width="136" height="70" as="geometry" />
        </mxCell>
        <mxCell id="2HC5BbfM1P_4dUDuNDmz-10" style="edgeStyle=orthogonalEdgeStyle;rounded=0;orthogonalLoop=1;jettySize=auto;html=1;" edge="1" parent="1" source="2HC5BbfM1P_4dUDuNDmz-9">
          <mxGeometry relative="1" as="geometry">
            <mxPoint x="410" y="600" as="targetPoint" />
          </mxGeometry>
        </mxCell>
        <mxCell id="2HC5BbfM1P_4dUDuNDmz-9" value="ESCREVER MEDIA" style="shape=parallelogram;perimeter=parallelogramPerimeter;whiteSpace=wrap;html=1;fixedSize=1;fillColor=#fff2cc;strokeColor=#d6b656;" vertex="1" parent="1">
          <mxGeometry x="320" y="470" width="180" height="70" as="geometry" />
        </mxCell>
        <mxCell id="2HC5BbfM1P_4dUDuNDmz-11" value="FIM" style="ellipse;whiteSpace=wrap;html=1;fillColor=#d5e8d4;strokeColor=#82b366;" vertex="1" parent="1">
          <mxGeometry x="340" y="600" width="150" height="90" as="geometry" />
        </mxCell>
      </root>
    </mxGraphModel>
  </diagram>
</mxfile>
